<svg width="18" height="18" viewBox="0 0 18 18" fill="none" xmlns="http://www.w3.org/2000/svg">
<path d="M6.5 18C5.786 18 5.191 17.762 4.715 17.286C4.23833 16.8087 4 16.2133 4 15.5C4 15.196 3.98567 14.9413 3.957 14.736C3.92833 14.5307 3.85667 14.3713 3.742 14.258C3.62867 14.1433 3.46933 14.0653 3.264 14.024C3.05867 13.9827 2.804 13.9617 2.5 13.961C1.786 13.961 1.191 13.7293 0.715 13.266C0.238333 12.8027 0 12.214 0 11.5C0 10.786 0.238333 10.191 0.715 9.715C1.19167 9.239 1.78667 9.00067 2.5 9C2.768 9 3.022 9.034 3.262 9.102C3.502 9.17 3.70567 9.272 3.873 9.408C4.053 9.54867 4.26133 9.619 4.498 9.619C4.73467 9.619 4.93667 9.53567 5.104 9.369L9.292 5.181C9.45867 5.01433 9.555 4.80267 9.581 4.546C9.607 4.28933 9.54933 4.065 9.408 3.873C9.28467 3.69233 9.18567 3.48533 9.111 3.252C9.03633 3.01867 8.99933 2.768 9 2.5C9 1.786 9.23833 1.191 9.715 0.715C10.191 0.238333 10.786 0 11.5 0C12.214 0 12.8093 0.238333 13.286 0.715C13.7627 1.19167 14.0007 1.78667 14 2.5C14 2.804 14.0143 3.05867 14.043 3.264C14.0717 3.46933 14.1433 3.62867 14.258 3.742C14.3713 3.85667 14.531 3.92833 14.737 3.957C14.943 3.98567 15.1973 4 15.5 4C16.214 4 16.8093 4.23833 17.286 4.715C17.762 5.191 18 5.786 18 6.5C18 7.214 17.762 7.80933 17.286 8.286C16.81 8.76267 16.2147 9.00067 15.5 9C15.232 9 14.9813 8.963 14.748 8.889C14.5147 8.815 14.3077 8.716 14.127 8.592C13.935 8.464 13.717 8.40967 13.473 8.429C13.2297 8.44833 13.0247 8.54133 12.858 8.708L8.708 12.858C8.54133 13.0247 8.445 13.22 8.419 13.444C8.393 13.668 8.438 13.883 8.554 14.089C8.664 14.269 8.766 14.4823 8.86 14.729C8.95333 14.975 9 15.232 9 15.5C9 16.214 8.762 16.8093 8.286 17.286C7.80867 17.762 7.21333 18 6.5 18Z" fill="#E28A4B"/>
</svg>
