<svg width="16" height="16" viewBox="0 0 16 16" fill="none" xmlns="http://www.w3.org/2000/svg">
<g clip-path="url(#clip0_1983_2294)">
<path d="M15.9568 4.45678L15.9569 4.45688L15.9628 4.45056C16.1396 4.26103 16.236 4.01023 16.2315 3.75105C16.227 3.49186 16.1221 3.24453 15.9388 3.06123L15.9388 3.06122C15.7555 2.87792 15.5081 2.77297 15.249 2.76849C14.9898 2.76402 14.739 2.86036 14.5494 3.03722L14.5493 3.03711L14.5432 3.04322L10 7.58645L7.70678 5.29322L7.70667 5.29311C7.51917 5.10585 7.265 5.00066 7 5.00066C6.735 5.00066 6.48083 5.10585 6.29333 5.29311L6.29322 5.29322L3.04322 8.54322L3.04312 8.54312L3.03722 8.54944C2.86036 8.73897 2.76401 8.98977 2.76849 9.24896C2.77297 9.50814 2.87792 9.75547 3.06122 9.93877L3.06123 9.93878C3.24453 10.1221 3.49186 10.227 3.75105 10.2315C4.01023 10.236 4.26103 10.1396 4.45056 9.96278L4.45066 9.96289L4.45678 9.95678L7 7.41355L9.29322 9.70678L9.29333 9.70689C9.48083 9.89415 9.735 9.99934 10 9.99934C10.265 9.99934 10.5192 9.89415 10.7067 9.70689L10.7068 9.70678L15.9568 4.45678ZM1.75 13.25V1.75C1.75 1.48478 1.64464 1.23043 1.45711 1.04289C1.26957 0.855357 1.01522 0.75 0.75 0.75C0.484783 0.75 0.23043 0.855357 0.0428932 1.04289C-0.144643 1.23043 -0.25 1.48478 -0.25 1.75V14.25C-0.25 14.5152 -0.144643 14.7696 0.042893 14.9571C0.230429 15.1446 0.484783 15.25 0.75 15.25H15.25C15.5152 15.25 15.7696 15.1446 15.9571 14.9571C16.1446 14.7696 16.25 14.5152 16.25 14.25C16.25 13.9848 16.1446 13.7304 15.9571 13.5429C15.7696 13.3554 15.5152 13.25 15.25 13.25H1.75Z" fill="#E28A4B" stroke="#E28A4B" stroke-width="0.5"/>
</g>
<defs>
<clipPath id="clip0_1983_2294">
<rect width="16" height="16" fill="white"/>
</clipPath>
</defs>
</svg>
