<svg width="16" height="14" viewBox="0 0 16 14" fill="none" xmlns="http://www.w3.org/2000/svg">
<path d="M8.00048 2.33155C7.84482 2.33162 7.69256 2.37582 7.56234 2.45872C7.43213 2.54162 7.32961 2.65962 7.26734 2.79828C7.13913 3.08176 6.90031 3.30412 6.60342 3.41645C6.30653 3.52878 5.97588 3.52188 5.68422 3.39727C5.39256 3.27265 5.16378 3.04054 5.04821 2.75198C4.93263 2.46342 4.93973 2.14206 5.06794 1.85859C5.27243 1.40681 5.58457 1.00879 5.97857 0.697406C6.37257 0.386019 6.83713 0.170195 7.3339 0.0677564C7.83066 -0.0346824 8.34536 -0.0207971 8.83552 0.108266C9.32566 0.237329 9.77719 0.477867 10.1528 0.810016C10.5284 1.14217 10.8174 1.5564 10.9958 2.0185C11.1742 2.48061 11.2369 2.97733 11.1788 3.46765C11.1207 3.95797 10.9434 4.42783 10.6616 4.83841C10.3797 5.24899 10.0015 5.58853 9.55799 5.82897C9.46786 5.87641 9.38264 5.93216 9.30348 5.99544L14.6195 8.98723C15.1462 9.28328 15.5577 9.73995 15.7902 10.2864C16.0227 10.8329 16.0632 11.4387 15.9055 12.0098C15.7477 12.5809 15.4005 13.0855 14.9176 13.4454C14.4348 13.8052 13.8433 14.0001 13.2349 14H2.76609C2.15818 13.9993 1.56738 13.8042 1.08485 13.4449C0.602326 13.0855 0.254877 12.5818 0.0961108 12.0114C-0.0626554 11.4411 -0.0239164 10.8358 0.206351 10.289C0.436618 9.74215 0.845619 9.28417 1.37025 8.98568L4.59412 7.15762C4.86923 7.00165 5.19681 6.95828 5.50481 7.03706C5.81281 7.11584 6.076 7.3103 6.23647 7.57768C6.39695 7.84506 6.44157 8.16345 6.36052 8.4628C6.27946 8.76216 6.07938 9.01796 5.80428 9.17393L2.58041 11.002C2.5119 11.0421 2.4587 11.1028 2.42883 11.1749C2.39896 11.2469 2.39405 11.3265 2.41484 11.4016C2.43564 11.4766 2.48101 11.543 2.54409 11.5908C2.60717 11.6386 2.68454 11.6651 2.76449 11.6663H13.2333C13.3137 11.6671 13.3921 11.6419 13.4562 11.5947C13.5203 11.5476 13.5665 11.481 13.5875 11.4056C13.6086 11.3302 13.6033 11.2501 13.5725 11.1779C13.5417 11.1057 13.4871 11.0455 13.4174 11.0067L7.90444 7.9044C7.56765 7.71578 7.28803 7.44413 7.09382 7.11687C6.89961 6.78962 6.79768 6.41835 6.79833 6.04056C6.79833 5.41357 7.08006 4.91261 7.3906 4.56255C7.69314 4.21717 8.06291 3.96513 8.38626 3.79088C8.5418 3.70765 8.66445 3.57651 8.7349 3.4181C8.80535 3.25969 8.8196 3.08301 8.77542 2.91587C8.73123 2.74872 8.63112 2.6006 8.49083 2.49482C8.35054 2.38904 8.17804 2.3316 8.00048 2.33155Z" fill="#E28A4B"/>
</svg>
