<svg width="53" height="53" viewBox="0 0 53 53" fill="none" xmlns="http://www.w3.org/2000/svg">
<circle cx="26.5" cy="26.5" r="26.5" fill="#FFDA7C"/>
<path d="M24.6337 15.844C25.2918 14.136 27.7082 14.136 28.3663 15.844L30.3845 21.0824C30.6819 21.8542 31.4237 22.3633 32.2508 22.3633H37.9534C39.972 22.3633 40.7195 25.014 38.9983 26.0687L35.004 28.5161C34.1812 29.0202 33.8357 30.04 34.1826 30.9405L35.8395 35.2411C36.5269 37.0253 34.5587 38.6644 32.9283 37.6655L27.5449 34.3669C26.9037 33.974 26.0963 33.974 25.4551 34.3669L20.0717 37.6655C18.4413 38.6644 16.4731 37.0253 17.1605 35.2411L18.8174 30.9405C19.1643 30.04 18.8188 29.0202 17.996 28.5161L14.0017 26.0687C12.2805 25.014 13.0279 22.3633 15.0466 22.3633H20.7492C21.5763 22.3633 22.3181 21.8542 22.6155 21.0824L24.6337 15.844Z" fill="white"/>
</svg>
